<?xml version="1.0" standalone="no"?>
<!DOCTYPE svg PUBLIC "-//W3C//DTD SVG 20010904//EN"
 "http://www.w3.org/TR/2001/REC-SVG-20010904/DTD/svg10.dtd">
<svg version="1.0" xmlns="http://www.w3.org/2000/svg"
 width="200.000000pt" height="40.000000pt" viewBox="0 0 200.000000 40.000000"
 preserveAspectRatio="xMidYMid meet">

<g transform="translate(0.000000,40.000000) scale(0.100000,-0.100000)"
fill="#000000" stroke="none">
<path d="M500 235 c0 -126 1 -135 19 -135 11 0 21 6 24 13 4 10 7 9 18 0 14
-14 67 -17 85 -5 20 13 34 50 34 90 0 71 -55 112 -111 82 -18 -10 -19 -7 -19
40 0 47 -2 50 -25 50 l-25 0 0 -135z m111 15 c14 -8 19 -21 19 -53 0 -46 -13
-67 -42 -67 -37 0 -55 99 -20 119 21 13 20 13 43 1z"/>
<path d="M749 271 c-20 -16 -24 -28 -24 -76 0 -74 23 -95 101 -95 45 0 54 3
54 18 0 14 -7 17 -40 14 -42 -4 -70 10 -70 34 0 10 16 14 59 14 33 0 63 5 66
10 10 16 -15 79 -35 90 -30 16 -86 12 -111 -9z m95 -27 c11 -29 6 -34 -34 -34
-26 0 -40 5 -40 13 0 34 62 52 74 21z"/>
<path d="M950 195 c0 -88 1 -95 20 -95 17 0 20 7 20 53 0 62 20 97 56 97 17 0
24 5 24 20 0 25 -41 28 -61 4 -11 -14 -13 -14 -21 0 -5 9 -16 16 -23 16 -12 0
-15 -19 -15 -95z"/>
<path d="M1110 195 c0 -95 0 -95 25 -95 24 0 25 3 25 59 0 64 15 91 51 91 12
0 19 7 19 20 0 24 -32 27 -50 5 -7 -8 -16 -15 -21 -15 -5 0 -9 7 -9 15 0 8 -9
15 -20 15 -19 0 -20 -7 -20 -95z"/>
<path d="M1270 241 c11 -28 29 -73 39 -100 18 -43 18 -51 5 -70 -8 -11 -24
-21 -35 -21 -12 0 -19 -7 -19 -20 0 -28 42 -26 74 3 21 19 106 217 106 248 0
5 -11 9 -24 9 -20 0 -25 -7 -35 -44 -6 -25 -16 -57 -22 -73 -10 -27 -11 -26
-33 42 -19 62 -25 70 -49 73 l-27 3 20 -50z"/>
</g>
</svg>
