<?xml version="1.0" encoding="UTF-8"?>
<!DOCTYPE svg PUBLIC "-//W3C//DTD SVG 1.1//EN" "http://www.w3.org/Graphics/SVG/1.1/DTD/svg11.dtd">
<svg xmlns="http://www.w3.org/2000/svg" version="1.1" width="200px" height="75px" style="shape-rendering:geometricPrecision; text-rendering:geometricPrecision; image-rendering:optimizeQuality; fill-rule:evenodd; clip-rule:evenodd" xmlns:xlink="http://www.w3.org/1999/xlink">
<g><path style="opacity:0.836" fill="#000000" d="M 9.5,33.5 C 12.1667,33.5 14.8333,33.5 17.5,33.5C 18.7228,42.446 20.3895,51.2793 22.5,60C 20.1902,60.4966 17.8568,60.6633 15.5,60.5C 15.5,58.8333 15.5,57.1667 15.5,55.5C 14.1667,55.5 12.8333,55.5 11.5,55.5C 11.5,57.1667 11.5,58.8333 11.5,60.5C 9.07603,60.8076 6.74269,60.4742 4.5,59.5C 6.42317,50.8841 8.08983,42.2175 9.5,33.5 Z M 12.5,48.5 C 14.337,48.6395 14.6704,49.3061 13.5,50.5C 12.7025,50.0431 12.3691,49.3764 12.5,48.5 Z"/></g>
<g><path style="opacity:0.803" fill="#000000" d="M 23.5,33.5 C 25.5,33.5 27.5,33.5 29.5,33.5C 32.5917,46.4239 33.9251,46.4239 33.5,33.5C 35.5,33.5 37.5,33.5 39.5,33.5C 39.5,42.5 39.5,51.5 39.5,60.5C 37.5,60.5 35.5,60.5 33.5,60.5C 30.4083,47.5761 29.0749,47.5761 29.5,60.5C 27.5,60.5 25.5,60.5 23.5,60.5C 23.5,51.5 23.5,42.5 23.5,33.5 Z"/></g>
<g><path style="opacity:0.882" fill="#000000" d="M 42.5,33.5 C 54.2602,30.8392 59.5935,35.3392 58.5,47C 60.1655,59.4909 54.8322,63.9909 42.5,60.5C 42.5,51.5 42.5,42.5 42.5,33.5 Z M 48.5,38.5 C 49.4959,38.4142 50.3292,38.7476 51,39.5C 51.4994,44.8229 51.666,50.1563 51.5,55.5C 50.5,55.5 49.5,55.5 48.5,55.5C 48.5,49.8333 48.5,44.1667 48.5,38.5 Z"/></g>
<g><path style="opacity:0.834" fill="#000000" d="M 61.5,33.5 C 66.2675,33.1908 70.9342,33.6908 75.5,35C 78.0965,37.3167 78.9299,40.15 78,43.5C 75.1224,48.7743 75.2891,54.1076 78.5,59.5C 76.1667,60.8333 73.8333,60.8333 71.5,59.5C 69.0877,47.6128 68.0877,47.9462 68.5,60.5C 66.1667,60.5 63.8333,60.5 61.5,60.5C 61.5,51.5 61.5,42.5 61.5,33.5 Z M 68.5,38.5 C 69.4959,38.4142 70.3292,38.7476 71,39.5C 71.4935,41.1341 71.6602,42.8008 71.5,44.5C 70.5,44.5 69.5,44.5 68.5,44.5C 68.5,42.5 68.5,40.5 68.5,38.5 Z"/></g>
<g><path style="opacity:0.818" fill="#000000" d="M 80.5,33.5 C 84.8333,33.5 89.1667,33.5 93.5,33.5C 93.5,35.1667 93.5,36.8333 93.5,38.5C 91.5,38.5 89.5,38.5 87.5,38.5C 87.5,40.5 87.5,42.5 87.5,44.5C 89.1667,44.5 90.8333,44.5 92.5,44.5C 92.5,46.1667 92.5,47.8333 92.5,49.5C 90.8333,49.5 89.1667,49.5 87.5,49.5C 87.5,51.8333 87.5,54.1667 87.5,56.5C 89.5,56.5 91.5,56.5 93.5,56.5C 93.5,57.8333 93.5,59.1667 93.5,60.5C 89.1667,60.5 84.8333,60.5 80.5,60.5C 80.5,51.5 80.5,42.5 80.5,33.5 Z"/></g>
<g><path style="opacity:0.792" fill="#000000" d="M 98.5,33.5 C 104.318,31.969 107.984,33.969 109.5,39.5C 108.323,41.9746 106.323,42.9746 103.5,42.5C 102.19,37.341 101.69,37.341 102,42.5C 106.411,45.1513 109.245,48.9846 110.5,54C 109.28,60.1126 105.614,62.4459 99.5,61C 95.6286,59.0338 94.2953,56.0338 95.5,52C 97.1341,51.5065 98.8008,51.3398 100.5,51.5C 100.222,53.3464 100.889,54.6798 102.5,55.5C 103.583,54.635 103.749,53.635 103,52.5C 98.7265,49.4129 95.8931,45.4129 94.5,40.5C 94.577,37.3346 95.9103,35.0013 98.5,33.5 Z"/></g>
<g><path style="opacity:0.798" fill="#000000" d="M 115.5,33.5 C 121.631,31.8452 125.298,34.0119 126.5,40C 125.056,42.0345 123.056,42.8678 120.5,42.5C 119.19,37.341 118.69,37.341 119,42.5C 121.333,44.8333 123.667,47.1667 126,49.5C 128.096,59.7426 124.262,63.2426 114.5,60C 112.07,57.6954 111.07,54.8621 111.5,51.5C 113.5,51.5 115.5,51.5 117.5,51.5C 117.5,52.8333 117.5,54.1667 117.5,55.5C 118.675,55.719 119.675,55.3857 120.5,54.5C 119.195,51.3623 117.029,49.029 114,47.5C 110.347,42.2551 110.847,37.5885 115.5,33.5 Z"/></g>
<g><path style="opacity:0.831" fill="#000000" d="M 132.5,33.5 C 135.167,33.5 137.833,33.5 140.5,33.5C 141.833,42.4974 143.166,51.4974 144.5,60.5C 142.5,60.5 140.5,60.5 138.5,60.5C 138.803,57.4124 137.47,55.7458 134.5,55.5C 134.5,57.1667 134.5,58.8333 134.5,60.5C 132.167,60.5 129.833,60.5 127.5,60.5C 129.038,51.4763 130.705,42.4763 132.5,33.5 Z"/></g>
<g><path style="opacity:0.826" fill="#000000" d="M 154.5,33.5 C 158.514,33.3345 162.514,33.5012 166.5,34C 171.452,37.3999 172.618,41.8999 170,47.5C 167.435,49.1793 164.602,49.846 161.5,49.5C 161.5,53.1667 161.5,56.8333 161.5,60.5C 159.167,60.5 156.833,60.5 154.5,60.5C 154.5,51.5 154.5,42.5 154.5,33.5 Z M 161.5,38.5 C 162.496,38.4142 163.329,38.7476 164,39.5C 164.494,41.1341 164.66,42.8008 164.5,44.5C 163.5,44.5 162.5,44.5 161.5,44.5C 161.5,42.5 161.5,40.5 161.5,38.5 Z"/></g>
<g><path style="opacity:0.837" fill="#000000" d="M 171.5,33.5 C 173.527,33.3379 175.527,33.5045 177.5,34C 179.543,41.4112 180.876,41.2446 181.5,33.5C 183.5,33.5 185.5,33.5 187.5,33.5C 186.315,39.227 184.815,44.8937 183,50.5C 182.502,53.8168 182.335,57.1501 182.5,60.5C 180.5,60.5 178.5,60.5 176.5,60.5C 176.666,56.4862 176.499,52.4862 176,48.5C 174.19,43.5713 172.69,38.5713 171.5,33.5 Z"/></g>
<g><path style="opacity:0.715" fill="#000000" d="M 146.5,54.5 C 151.5,53.5 153.5,55.5 152.5,60.5C 150.5,60.5 148.5,60.5 146.5,60.5C 146.5,58.5 146.5,56.5 146.5,54.5 Z"/></g>
</svg>
